<svg xmlns="http://www.w3.org/2000/svg" width="15" height="15" fill="none"><path fill="url(#a)" fill-rule="evenodd" d="M1.322 2.03c0-.39.316-.706.705-.706H12.97c.39 0 .706.316.706.706v2.735c0 .39-.317.706-.706.706H2.027a.706.706 0 0 1-.705-.706V2.03zM2.027 0A2.03 2.03 0 0 0-.002 2.03v2.735a2.03 2.03 0 0 0 2.03 2.03h10.94a2.03 2.03 0 0 0 2.03-2.03V2.03A2.03 2.03 0 0 0 12.968 0H2.029zm-.705 10.235c0-.39.316-.705.705-.705H12.97c.39 0 .706.316.706.705v2.736c0 .39-.317.706-.706.706H2.027a.706.706 0 0 1-.705-.706v-2.736zm.705-2.029a2.03 2.03 0 0 0-2.029 2.03v2.735c0 1.12.909 2.03 2.03 2.03h10.94a2.03 2.03 0 0 0 2.03-2.03v-2.736a2.03 2.03 0 0 0-2.03-2.029H2.029zm.71-4.808c0-.366.296-.662.661-.662h.009a.662.662 0 1 1 0 1.323h-.009a.662.662 0 0 1-.662-.661zm.661 7.544a.662.662 0 1 0 0 1.323h.009a.662.662 0 0 0 0-1.323h-.009z" clip-rule="evenodd"/><defs><linearGradient id="a" x1="14.998" x2="-.002" y1="7.5" y2="7.5" gradientUnits="userSpaceOnUse"><stop stop-color="#FFB168"/><stop offset="1" stop-color="#E36D00"/></linearGradient></defs></svg>