<svg xmlns="http://www.w3.org/2000/svg" width="20" height="20" fill="none"><g stroke-linecap="round" stroke-linejoin="round" stroke-width="1.5" clip-path="url(#a)"><path stroke="url(#b)" d="M10 12.5a2.5 2.5 0 1 0 0-5 2.5 2.5 0 0 0 0 5Z"/><path stroke="url(#c)" d="M16.167 12.5a1.375 1.375 0 0 0 .275 1.517l.05.05a1.666 1.666 0 0 1-1.179 2.847 1.666 1.666 0 0 1-1.179-.489l-.05-.05a1.374 1.374 0 0 0-1.517-.275 1.374 1.374 0 0 0-.833 1.258v.142a1.667 1.667 0 0 1-3.333 0v-.075a1.375 1.375 0 0 0-.9-1.258 1.375 1.375 0 0 0-1.517.275l-.05.05a1.666 1.666 0 1 1-2.358-2.359l.05-.05a1.375 1.375 0 0 0 .275-1.516 1.375 1.375 0 0 0-1.259-.834h-.141a1.667 1.667 0 1 1 0-3.333h.075a1.375 1.375 0 0 0 1.258-.9 1.375 1.375 0 0 0-.275-1.516l-.05-.05a1.667 1.667 0 1 1 2.358-2.359l.05.05a1.375 1.375 0 0 0 1.517.275h.067a1.375 1.375 0 0 0 .833-1.258V2.5a1.667 1.667 0 0 1 3.333 0v.075a1.375 1.375 0 0 0 .834 1.258 1.375 1.375 0 0 0 1.516-.275l.05-.05a1.666 1.666 0 0 1 2.72 1.818 1.668 1.668 0 0 1-.361.54l-.05.05a1.375 1.375 0 0 0-.275 1.518V7.5a1.375 1.375 0 0 0 1.258.834h.142a1.667 1.667 0 0 1 0 3.333h-.075a1.376 1.376 0 0 0-1.259.833Z"/></g><defs><linearGradient id="b" x1="12.5" x2="7.5" y1="10" y2="10" gradientUnits="userSpaceOnUse"><stop stop-color="#FFB168"/><stop offset="1" stop-color="#E36D00"/></linearGradient><linearGradient id="c" x1="19.167" x2=".834" y1="10" y2="10" gradientUnits="userSpaceOnUse"><stop stop-color="#FFB168"/><stop offset="1" stop-color="#E36D00"/></linearGradient><clipPath id="a"><path fill="#fff" d="M0 0h20v20H0z"/></clipPath></defs></svg>