<svg xmlns="http://www.w3.org/2000/svg" width="20" height="12" fill="none"><path fill="url(#a)" fill-rule="evenodd" d="M19.043 1.972a.75.75 0 0 0-.97-.972h-4.268a.7.7 0 0 0 0 1.398h2.78l-5.428 5.428-3.253-3.252a.75.75 0 0 0-1.06 0l-5.675 5.674a.75.75 0 1 0 1.06 1.06l5.145-5.143 3.253 3.252a.75.75 0 0 0 1.06 0l5.958-5.958v2.78a.7.7 0 0 0 1.398 0V1.972z" clip-rule="evenodd"/><defs><linearGradient id="a" x1="19.095" x2=".949" y1="6.239" y2="6.239" gradientUnits="userSpaceOnUse"><stop stop-color="#FFB168"/><stop offset="1" stop-color="#E36D00"/></linearGradient></defs></svg>