<svg xmlns="http://www.w3.org/2000/svg" width="239" height="239" fill="none"><path fill="url(#a)" fill-rule="evenodd" d="M118.5 1.5H95.701v22.8H118.5V1.5zM94.701 48.1V25.3h-22.8v22.8h22.8zm0 1v22.8h-22.8V49.1h22.8zm0 46.6V72.9h-22.8v22.8h22.8zm0 24.8h-22.8v22.8h22.8v-22.8zm-23.8 46.6v-22.8H48.1v22.8h22.8zm0 1v22.8H48.1v-22.8h22.8zm0 46.6v-22.8H48.1v22.8h22.8zm0 1V239h1v-23.3h22.8V239h1v-23.3H118.5V239h1v-23.3h22.799V239h1v-23.3H166.1V239h1v-23.3h22.8V239h1v-23.3h22.801V239h1v-23.3H237.5V239h1V1h-.5V.5H0v1h23.299v22.8H0v1h23.299v22.8H0v1h23.299v22.8H0v1h23.299v22.8H0v1h23.299v22.8H0v1h23.299v22.8H0v1h23.299v22.8H0v1h23.299v22.8H0v1h23.299v22.8H0v1h23.299V239h1v-23.3h22.8V239h1v-23.3H70.9zm166.599-1v-22.8h-22.799v22.8H237.5zm-23.799 0v-22.8H190.9v22.8h22.801zm-23.801 0v-22.8h-22.8v22.8h22.8zm-23.8 0v-22.8h-22.801v22.8H166.1zm-23.801 0v-22.8H119.5v22.8h22.799zm0-23.8H119.5v-22.8h22.799v22.8zm23.801 0h-22.801v-22.8H166.1v22.8zm23.8 0h-22.8v-22.8h22.8v22.8zm23.801 0H190.9v-22.8h22.801v22.8zm23.799 0h-22.799v-22.8H237.5v22.8zm0-23.8v-22.8h-22.799v22.8H237.5zm-23.799 0v-22.8H190.9v22.8h22.801zm-23.801 0v-22.8h-22.8v22.8h22.8zm-23.8 0v-22.8h-22.801v22.8H166.1zm-23.801 0v-22.8H119.5v22.8h22.799zm0-23.8H119.5v-22.8h22.799v22.8zm23.801 0h-22.801v-22.8H166.1v22.8zm23.8 0h-22.8v-22.8h22.8v22.8zm23.801 0H190.9v-22.8h22.801v22.8zm23.799 0h-22.799v-22.8H237.5v22.8zm0-23.8V96.7h-22.799v22.8H237.5zm-23.799 0V96.7H190.9v22.8h22.801zm-23.801 0V96.7h-22.8v22.8h22.8zm-23.8 0V96.7h-22.801v22.8H166.1zm-23.801 0V96.7H119.5v22.8h22.799zM237.5 95.7V72.9h-22.799v22.8H237.5zm-23.799 0V72.9H190.9v22.8h22.801zm-23.801 0V72.9h-22.8v22.8h22.8zm-23.8 0V72.9h-22.801v22.8H166.1zm-23.801 0V72.9H119.5v22.8h22.799zm0-23.8H119.5V49.1h22.799v22.8zm23.801 0h-22.801V49.1H166.1v22.8zm23.8 0h-22.8V49.1h22.8v22.8zm23.801 0H190.9V49.1h22.801v22.8zm23.799 0h-22.799V49.1H237.5v22.8zm0-23.8V25.3h-22.799v22.8H237.5zm-23.799 0V25.3H190.9v22.8h22.801zm-23.801 0V25.3h-22.8v22.8h22.8zm-23.8 0V25.3h-22.801v22.8H166.1zm-23.801 0V25.3H119.5v22.8h22.799zm0-23.8H119.5V1.5h22.799v22.8zm23.801 0h-22.801V1.5H166.1v22.8zm23.8 0h-22.8V1.5h22.8v22.8zm23.801 0H190.9V1.5h22.801v22.8zm23.799 0h-22.799V1.5H237.5v22.8zM47.1 214.7v-22.8H24.299v22.8h22.8zm71.4 0v-22.8H95.701v22.8H118.5zm-23.799 0v-22.8h-22.8v22.8h22.8zM47.1 168.1v22.8H24.299v-22.8h22.8zm71.4 0v22.8H95.701v-22.8H118.5zm-23.799 0v22.8h-22.8v-22.8h22.8zm-47.601-1v-22.8H24.299v22.8h22.8zm71.4 0v-22.8H95.701v22.8H118.5zm-23.799 0v-22.8h-22.8v22.8h22.8zm-23.8-46.6v22.8H48.1v-22.8h22.8zm-23.801 0v22.8H24.299v-22.8h22.8zm71.4 0v22.8H95.701v-22.8H118.5zm-22.799-1H118.5V96.7H95.701v22.8zm-71.402 0h22.8V96.7H24.3v22.8zm23.8 0H70.9V96.7H48.1v22.8zm23.801 0h22.801V96.7h-22.8v22.8zm-1-23.8V72.9H48.1v22.8h22.8zm-23.8 0V72.9H24.299v22.8h22.8zm71.4 0H95.701V72.9H118.5v22.8zM70.9 49.1v22.8H48.1V49.1h22.8zm-23.8 0v22.8H24.299V49.1h22.8zm48.6 22.8h22.8V49.1H95.701v22.8zM70.9 48.1V25.3H48.1v22.8h22.8zm-23.801 0V25.3h-22.8v22.8h22.8zm71.4 0H95.701V25.3H118.5v22.8zM94.701 1.5v22.8h-22.8V1.5h22.8zm-23.8 0v22.8H48.1V1.5h22.8zM47.1 1.5v22.8H24.299V1.5h22.8z" clip-rule="evenodd"/><defs><radialGradient id="a" cx="0" cy="0" r="1" gradientTransform="matrix(-197.50035 -159.49933 166.60214 -206.29541 235.5 229.5)" gradientUnits="userSpaceOnUse"><stop stop-color="#202020"/><stop offset="1" stop-color="#1B1B1B" stop-opacity="0"/></radialGradient></defs></svg>